<?xml version="1.0" encoding="utf-8"?>
<!-- Generator: Adobe Illustrator 22.1.0, SVG Export Plug-In . SVG Version: 6.00 Build 0)  -->
<svg version="1.1" id="Layer_1" xmlns="http://www.w3.org/2000/svg" xmlns:xlink="http://www.w3.org/1999/xlink" x="0px" y="0px"
	 viewBox="0 0 419.5 237.9" style="enable-background:new 0 0 419.5 237.9;" xml:space="preserve">
<style type="text/css">
	.st0{fill-rule:evenodd;clip-rule:evenodd;fill:#FFFFFF;}
	.st1{fill:#FFFFFF;}
</style>
<g>
	<g>
		<path class="st0" d="M240.2,165.1c5.8-3.4,11.4-7.2,16.7-12.2c4.3,5,9.9,9,16.4,12.2v50.9h-33.1V165.1"/>
		<path class="st0" d="M312,24.7c39.5,0,71.5,32,71.5,71.5c0,34.7-24.7,63.6-57.5,70.1c-4.5,0.9-9.3,1.3-14.1,1.3
			c-1.4,0-2.8-0.1-4.3-0.1v-32.9c0.3,0,0.6,0.1,0.9,0.1c5.2,0.5,10.5,0,15.3-1.5c15.7-5,27-19.7,27-37c0-21.4-17.4-38.8-38.8-38.8
			c-13.9,0-26.2,7.4-33,18.4c-3.1-11.7-8.7-22.3-16.3-31.3C275.5,32.2,292.9,24.7,312,24.7"/>
		<path class="st0" d="M142.9,151.6c-1.7,1.5-3.5,2.8-5.5,4.1c-6.4,4.2-14,7.2-22,9.3c-9.3,2.4-19.2,3.4-29,3.4
			c-6.3,0-12.6-0.4-18.8-1.1c-5.4-0.7-10.8-1.6-16-2.9c-4.2-1.1-8.5-2.4-12.2-4.2l-2.5-1.2l10.7-29.4l4.4,2.1c2.5,1.2,5.3,2.1,8.1,3
			c3.6,1,7.3,1.8,11,2.5c3.9,0.6,10.6,1,14.5,1c4.6,0,12.1-0.5,16.3-2.1c3.3-1.2,6-2.9,8-5.3c1.9-2.3,2.8-4.9,2.7-7.6
			c-0.1-10.4-12.5-16.5-22.1-16.5H63.2V78.9h26.3c15.7-0.6,23.2-10.4,16.4-18.8c-1.4-1.7-3.4-2.9-5.8-3.8c-3.2-1.2-9.8-1.5-13.3-1.5
			c-8.7,0-22.3,2.6-30.1,6.1l-4.4,2l-9.9-28.1l2.4-1.2c4-1.9,8.4-3.3,12.8-4.5c5.5-1.5,11.2-2.6,17-3.4c6.4-0.9,12.8-1.3,19.3-1.3
			c8.1,0,16.4,0.8,24.1,2.8c6.6,1.7,12.7,4.2,17.9,7.8c2.7,1.8,5.1,3.9,7.1,6.1c-13.8,14.5-22.2,34.1-22.2,55.4
			C120.9,117.8,129.3,137.2,142.9,151.6"/>
		<path class="st0" d="M201.3,57.3c21.4,0,38.8,17.4,38.8,38.8c0,21.4-17.4,38.8-38.8,38.8c-21.4,0-38.8-17.4-38.8-38.8
			C162.5,74.7,179.9,57.3,201.3,57.3 M201.3,24.7c36.9,0,67.3,28,71.1,63.9c0.7,6.6,0.3,11.3,2.2,17.9c1.5,5.6,4.3,10.7,8,15
			c4.9,5.2,9.4,8.7,16.3,11.1v33.8c-6.2-1.1-12.2-3.1-17.8-5.8c-9.4-4.5-17.7-11.1-24.2-19.1c-13.1,16.2-33.2,26.5-55.7,26.5
			c-39.6,0-71.7-32.1-71.7-71.7c0-36,26.6-65.8,61.1-70.9C194.1,25,197.7,24.7,201.3,24.7"/>
	</g>
	<g>
		<path class="st1" d="M49.5,196.7l-1,3.6h-3.3l4.3-14.2h4.2l4.4,14.2h-3.4l-1.1-3.6H49.5z M53.1,194.3l-0.9-3
			c-0.3-0.8-0.5-1.9-0.7-2.7h0c-0.2,0.8-0.4,1.9-0.7,2.7l-0.8,3H53.1z"/>
		<path class="st1" d="M59.8,197.6c0.6,0.4,1.8,0.8,2.8,0.8c1,0,1.4-0.3,1.4-0.9c0-0.5-0.3-0.8-1.5-1.2c-2.1-0.7-2.9-1.9-2.9-3.1
			c0-1.9,1.6-3.4,4.2-3.4c1.2,0,2.3,0.3,2.9,0.6l-0.6,2.2c-0.5-0.3-1.3-0.6-2.2-0.6c-0.8,0-1.2,0.3-1.2,0.8c0,0.5,0.4,0.7,1.7,1.2
			c2,0.7,2.8,1.7,2.8,3.2c0,1.9-1.5,3.3-4.5,3.3c-1.3,0-2.5-0.3-3.3-0.7L59.8,197.6z"/>
		<path class="st1" d="M76.6,196.7l-1,3.6h-3.3l4.3-14.2h4.2l4.4,14.2h-3.4l-1.1-3.6H76.6z M80.2,194.3l-0.9-3
			c-0.3-0.8-0.5-1.9-0.7-2.7h0c-0.2,0.8-0.4,1.9-0.7,2.7l-0.8,3H80.2z"/>
		<path class="st1" d="M96.5,190.1c0,0.7-0.1,1.5-0.1,3v5.7c0,2-0.4,3.6-1.6,4.6c-1.1,1-2.7,1.3-4.2,1.3c-1.3,0-2.8-0.3-3.7-0.8
			l0.6-2.4c0.7,0.4,1.8,0.8,3,0.8c1.5,0,2.7-0.8,2.7-2.7v-0.7h0c-0.6,0.9-1.6,1.3-2.8,1.3c-2.5,0-4.3-2.1-4.3-5
			c0-3.3,2.1-5.4,4.7-5.4c1.4,0,2.3,0.6,2.8,1.4h0l0.1-1.2H96.5z M93.2,194.3c0-0.2,0-0.4-0.1-0.6c-0.2-0.8-0.8-1.4-1.7-1.4
			c-1.2,0-2.1,1.1-2.1,2.9c0,1.5,0.8,2.7,2.1,2.7c0.8,0,1.5-0.5,1.7-1.3c0.1-0.2,0.1-0.6,0.1-0.8V194.3z"/>
		<path class="st1" d="M102.3,187.2c0,0.9-0.7,1.6-1.7,1.6c-1,0-1.7-0.7-1.7-1.6c0-0.9,0.7-1.6,1.7-1.6
			C101.6,185.6,102.3,186.3,102.3,187.2z M99,200.4v-10.3h3.2v10.3H99z"/>
		<path class="st1" d="M104.7,185.5h3.2v14.9h-3.2V185.5z"/>
		<path class="st1" d="M113,196.3c0.1,1.3,1.4,2,2.9,2c1.1,0,2-0.1,2.8-0.4l0.4,2.2c-1,0.4-2.3,0.6-3.7,0.6c-3.5,0-5.5-2-5.5-5.2
			c0-2.6,1.6-5.5,5.2-5.5c3.3,0,4.6,2.6,4.6,5.1c0,0.5-0.1,1-0.1,1.3H113z M116.7,194.1c0-0.8-0.3-2.1-1.8-2.1c-1.3,0-1.9,1.2-2,2.1
			H116.7z"/>
		<path class="st1" d="M129.2,196.7l-1,3.6h-3.3l4.3-14.2h4.2l4.4,14.2h-3.4l-1.1-3.6H129.2z M132.8,194.3l-0.9-3
			c-0.3-0.8-0.5-1.9-0.7-2.7h0c-0.2,0.8-0.4,1.9-0.7,2.7l-0.8,3H132.8z"/>
		<path class="st1" d="M139.5,197.6c0.6,0.4,1.8,0.8,2.8,0.8c1,0,1.4-0.3,1.4-0.9c0-0.5-0.3-0.8-1.5-1.2c-2.1-0.7-2.9-1.9-2.9-3.1
			c0-1.9,1.6-3.4,4.2-3.4c1.2,0,2.3,0.3,2.9,0.6l-0.6,2.2c-0.5-0.3-1.3-0.6-2.2-0.6c-0.8,0-1.2,0.3-1.2,0.8c0,0.5,0.4,0.7,1.7,1.2
			c2,0.7,2.8,1.7,2.8,3.2c0,1.9-1.5,3.3-4.5,3.3c-1.3,0-2.5-0.3-3.3-0.7L139.5,197.6z"/>
		<path class="st1" d="M153,186.4c1-0.2,2.4-0.3,4.3-0.3c2,0,3.4,0.4,4.3,1.1c0.9,0.7,1.5,1.9,1.5,3.3c0,1.4-0.5,2.6-1.3,3.4
			c-1.1,1-2.7,1.5-4.6,1.5c-0.4,0-0.8,0-1.1-0.1v5.1H153V186.4z M156.2,192.8c0.3,0.1,0.6,0.1,1.1,0.1c1.7,0,2.8-0.9,2.8-2.3
			c0-1.3-0.9-2.1-2.5-2.1c-0.7,0-1.1,0.1-1.3,0.1V192.8z"/>
		<path class="st1" d="M174.7,195.1c0,3.8-2.7,5.5-5.4,5.5c-3,0-5.3-2-5.3-5.3c0-3.3,2.2-5.4,5.5-5.4
			C172.6,189.9,174.7,192,174.7,195.1z M167.3,195.2c0,1.8,0.7,3.1,2.1,3.1c1.2,0,2-1.2,2-3.1c0-1.5-0.6-3.1-2-3.1
			C167.9,192.1,167.3,193.7,167.3,195.2z"/>
		<path class="st1" d="M176.7,197.6c0.6,0.4,1.8,0.8,2.8,0.8c1,0,1.4-0.3,1.4-0.9c0-0.5-0.3-0.8-1.5-1.2c-2.1-0.7-2.9-1.9-2.9-3.1
			c0-1.9,1.6-3.4,4.2-3.4c1.2,0,2.3,0.3,2.9,0.6l-0.6,2.2c-0.5-0.3-1.3-0.6-2.2-0.6c-0.8,0-1.2,0.3-1.2,0.8c0,0.5,0.4,0.7,1.7,1.2
			c2,0.7,2.8,1.7,2.8,3.2c0,1.9-1.5,3.3-4.5,3.3c-1.3,0-2.5-0.3-3.3-0.7L176.7,197.6z"/>
		<path class="st1" d="M185.8,197.6c0.6,0.4,1.8,0.8,2.8,0.8c1,0,1.4-0.3,1.4-0.9c0-0.5-0.3-0.8-1.5-1.2c-2.1-0.7-2.9-1.9-2.9-3.1
			c0-1.9,1.6-3.4,4.2-3.4c1.2,0,2.3,0.3,2.9,0.6l-0.6,2.2c-0.5-0.3-1.3-0.6-2.2-0.6c-0.8,0-1.2,0.3-1.2,0.8c0,0.5,0.4,0.7,1.7,1.2
			c2,0.7,2.8,1.7,2.8,3.2c0,1.9-1.5,3.3-4.5,3.3c-1.3,0-2.5-0.3-3.3-0.7L185.8,197.6z"/>
		<path class="st1" d="M198.2,187.2c0,0.9-0.7,1.6-1.7,1.6c-1,0-1.7-0.7-1.7-1.6c0-0.9,0.7-1.6,1.7-1.6
			C197.6,185.6,198.2,186.3,198.2,187.2z M194.9,200.4v-10.3h3.2v10.3H194.9z"/>
		<path class="st1" d="M200.6,200.4c0-0.7,0.1-1.9,0.1-3.1v-11.8h3.2v5.9h0c0.6-0.9,1.7-1.4,3.1-1.4c2.5,0,4.3,2,4.2,5.2
			c0,3.7-2.4,5.5-4.7,5.5c-1.2,0-2.4-0.4-3.1-1.7h0l-0.1,1.4H200.6z M203.9,196c0,0.2,0,0.4,0.1,0.6c0.2,0.9,0.9,1.5,1.9,1.5
			c1.4,0,2.2-1,2.2-2.9c0-1.6-0.7-2.9-2.2-2.9c-0.9,0-1.7,0.7-1.9,1.6c0,0.2-0.1,0.4-0.1,0.6V196z"/>
		<path class="st1" d="M213.3,185.5h3.2v14.9h-3.2V185.5z"/>
		<path class="st1" d="M221.5,196.3c0.1,1.3,1.4,2,2.9,2c1.1,0,2-0.1,2.8-0.4l0.4,2.2c-1,0.4-2.3,0.6-3.7,0.6c-3.5,0-5.5-2-5.5-5.2
			c0-2.6,1.6-5.5,5.2-5.5c3.3,0,4.6,2.6,4.6,5.1c0,0.5-0.1,1-0.1,1.3H221.5z M225.3,194.1c0-0.8-0.3-2.1-1.8-2.1
			c-1.3,0-1.9,1.2-2,2.1H225.3z"/>
	</g>
</g>
</svg>
