<?xml version="1.0" encoding="UTF-8"?>
<svg width="496px" height="323px" viewBox="0 0 496 323" version="1.1" xmlns="http://www.w3.org/2000/svg" xmlns:xlink="http://www.w3.org/1999/xlink">
    <!-- Generator: Sketch 50.2 (55047) - http://www.bohemiancoding.com/sketch -->
    <title>Page 1</title>
    <desc>Created with Sketch.</desc>
    <defs></defs>
    <g id="Page-1" stroke="none" stroke-width="1" fill="none" fill-rule="evenodd">
        <g id="Error" transform="translate(-352.000000, -539.000000)">
            <g id="Page-1" transform="translate(354.000000, 541.000000)">
                <g id="Group-44">
                    <path d="M355.031691,282.346754 C355.031691,290.900162 306.172989,297.834579 245.900575,297.834579 C185.62672,297.834579 136.766578,290.900162 136.766578,282.346754 C136.766578,273.790462 185.62672,266.856046 245.900575,266.856046 C306.172989,266.856046 355.031691,273.790462 355.031691,282.346754" id="Fill-1" fill="#FFFFFF" opacity="0.7"></path>
                    <path d="M454.604704,233.097691 C454.604704,238.127666 450.49329,242.246508 445.462786,242.246508 L46.3343304,242.246508 C41.3081478,242.246508 37.1938522,238.127666 37.1938522,233.097691 L37.1938522,9.39139083 C37.1938522,4.35997417 41.3081478,0.242574167 46.3343304,0.242574167 L445.462786,0.242574167 C450.49329,0.242574167 454.604704,4.35997417 454.604704,9.39139083 L454.604704,233.097691 Z" id="Fill-3" stroke="#FFFFFF" stroke-width="3"></path>
                    <path d="M46.333322,0.243295 C41.3071394,0.243295 37.1942843,4.35925333 37.1942843,9.39211167 L37.1942843,32.646195 L454.605137,32.646195 L454.605137,9.39211167 C454.605137,4.35925333 450.492281,0.243295 445.463218,0.243295 L46.333322,0.243295 Z" id="Fill-5" fill-opacity="0.7" fill="#FFFFFF"></path>
                    <polygon id="Fill-7" fill-opacity="0.5" fill="#FFFFFF" points="37.1938522 39.3041 454.604704 39.3041 454.604704 32.0871167 37.1938522 32.0871167"></polygon>
                    <path d="M386.164491,20.08726 C386.164491,22.46601 384.219708,24.41226 381.842752,24.41226 L118.586894,24.41226 C116.209937,24.41226 114.265155,22.46601 114.265155,20.08726 L114.265155,12.8010767 C114.265155,10.4223267 116.209937,8.47607667 118.586894,8.47607667 L381.842752,8.47607667 C384.219708,8.47607667 386.164491,10.4223267 386.164491,12.8010767 L386.164491,20.08726 Z" id="Fill-9" fill="#FFFFFF"></path>
                    <path d="M434.665929,20.08726 C434.665929,22.46601 432.721146,24.41226 430.34419,24.41226 L402.61159,24.41226 C400.234633,24.41226 398.28985,22.46601 398.28985,20.08726 L398.28985,12.8010767 C398.28985,10.4223267 400.234633,8.47607667 402.61159,8.47607667 L430.34419,8.47607667 C432.721146,8.47607667 434.665929,10.4223267 434.665929,12.8010767 L434.665929,20.08726 Z" id="Fill-10" fill="#FFFFFF"></path>
                    <path d="M65.7916643,16.4437358 C65.7916643,19.4798858 63.3311542,21.9422525 60.2972933,21.9422525 C57.2619919,21.9422525 54.8029223,19.4798858 54.8029223,16.4437358 C54.8029223,13.4090275 57.2619919,10.9466608 60.2972933,10.9466608 C63.3311542,10.9466608 65.7916643,13.4090275 65.7916643,16.4437358" id="Fill-11" fill="#FFFFFF"></path>
                    <path d="M82.0403951,16.4437358 C82.0403951,19.4798858 79.5798849,21.9422525 76.5474646,21.9422525 C73.5121632,21.9422525 71.0530936,19.4798858 71.0530936,16.4437358 C71.0530936,13.4090275 73.5121632,10.9466608 76.5474646,10.9466608 C79.5798849,10.9466608 82.0403951,13.4090275 82.0403951,16.4437358" id="Fill-12" fill="#FFFFFF"></path>
                    <path d="M98.2891258,16.4437358 C98.2891258,19.4798858 95.8300562,21.9422525 92.7961954,21.9422525 C89.7608939,21.9422525 87.3018243,19.4798858 87.3018243,16.4437358 C87.3018243,13.4090275 89.7608939,10.9466608 92.7961954,10.9466608 C95.8300562,10.9466608 98.2891258,13.4090275 98.2891258,16.4437358" id="Fill-13" fill="#FFFFFF"></path>
                    <path d="M49.2996197,233.156799 C49.2996197,231.304257 51.2444023,229.787624 53.6213588,229.787624 L438.17691,229.787624 C440.555307,229.787624 442.498649,231.304257 442.498649,233.156799 C442.498649,235.007899 440.555307,236.524532 438.17691,236.524532 L53.6213588,236.524532 C51.2444023,236.524532 49.2996197,235.007899 49.2996197,233.156799" id="Fill-14" fill="#FFFFFF"></path>
                    <path d="M120.157829,129.96911 L112.412181,138.731865 C111.954969,139.249115 111.16501,139.297786 110.64776,138.840573 C110.130509,138.383361 110.081839,137.593402 110.539051,137.076152 L118.285939,128.311995 L109.528305,120.559187 C109.011397,120.101588 108.963318,119.311593 109.420917,118.794685 C109.878517,118.277777 110.668511,118.229698 111.185419,118.687298 L119.941652,126.438865 L127.687712,117.675644 C128.144925,117.158393 128.934883,117.109723 129.452133,117.566935 C129.969384,118.024148 130.018054,118.814106 129.560842,119.331356 L121.813542,128.09598 L130.5713,135.848898 C131.088209,136.306497 131.136288,137.096492 130.678688,137.6134 C130.221089,138.130308 129.431094,138.178387 128.914186,137.720787 L120.157829,129.96911 Z" id="Combined-Shape" fill="#FFFFFF"></path>
                    <path d="M371.855484,129.96911 L364.109836,138.731865 C363.652623,139.249115 362.862665,139.297786 362.345415,138.840573 C361.828164,138.383361 361.779494,137.593402 362.236706,137.076152 L369.983593,128.311995 L361.22596,120.559187 C360.709051,120.101588 360.660972,119.311593 361.118572,118.794685 C361.576171,118.277777 362.366166,118.229698 362.883074,118.687298 L371.639307,126.438865 L379.385367,117.675644 C379.842579,117.158393 380.632538,117.109723 381.149788,117.566935 C381.667039,118.024148 381.715709,118.814106 381.258497,119.331356 L373.511197,128.09598 L382.268955,135.848898 C382.785863,136.306497 382.833942,137.096492 382.376343,137.6134 C381.918743,138.130308 381.128749,138.178387 380.611841,137.720787 L371.855484,129.96911 Z" id="Combined-Shape" fill="#FFFFFF"></path>
                    <path d="M12.7083188,162.015451 L8.51191014,162.015451 C8.51191014,146.187392 21.3791681,133.311867 37.1938522,133.311867 L37.1938522,137.512884 C23.6927391,137.512884 12.7083188,148.504151 12.7083188,162.015451" id="Fill-19" fill="#ECFAFB"></path>
                    <path d="M17.6054255,166.854261 C17.6054255,170.722253 14.4736052,173.854994 10.6099704,173.854994 C6.74777623,173.854994 3.61451536,170.722253 3.61451536,166.854261 C3.61451536,162.987711 6.74777623,159.854969 10.6099704,159.854969 C14.4736052,159.854969 17.6054255,162.987711 17.6054255,166.854261" id="Fill-20" fill="#ECFAFB"></path>
                    <path d="M10.6528997,179.222463 C9.88218957,179.222463 9.25409681,178.595338 9.25409681,177.822605 L9.25409681,169.541672 C9.25409681,168.767497 9.88218957,168.140372 10.6528997,168.140372 C11.426491,168.140372 12.0531432,168.767497 12.0531432,169.541672 L12.0531432,177.822605 C12.0531432,178.595338 11.426491,179.222463 10.6528997,179.222463" id="Fill-21" fill="#ECFAFB"></path>
                    <path d="M15.2883971,179.222463 C14.5162464,179.222463 13.8881536,178.595338 13.8881536,177.822605 L13.8881536,169.541672 C13.8881536,168.767497 14.5162464,168.140372 15.2883971,168.140372 C16.0619884,168.140372 16.6872,168.767497 16.6872,169.541672 L16.6872,177.822605 C16.6872,178.595338 16.0619884,179.222463 15.2883971,179.222463" id="Fill-22" fill="#ECFAFB"></path>
                    <path d="M6.0188429,179.222463 C5.24669217,179.222463 4.62004,178.595338 4.62004,177.822605 L4.62004,169.541672 C4.62004,168.767497 5.24669217,168.140372 6.0188429,168.140372 C6.7924342,168.140372 7.41908638,168.767497 7.41908638,169.541672 L7.41908638,177.822605 C7.41908638,178.595338 6.7924342,179.222463 6.0188429,179.222463" id="Fill-23" fill="#ECFAFB"></path>
                    <path d="M20.531531,172.342253 C20.1728267,172.342253 19.8155629,172.205295 19.5418528,171.93282 L13.6916586,166.075328 C13.1442383,165.527495 13.1442383,164.642312 13.6916586,164.094478 C14.2376383,163.548087 15.1221542,163.548087 15.6695745,164.094478 L21.5212093,169.95197 C22.0657484,170.499803 22.0657484,171.384987 21.5212093,171.93282 C21.2460586,172.205295 20.8887948,172.342253 20.531531,172.342253" id="Fill-24" fill="#ECFAFB"></path>
                    <path d="M483.28679,162.015451 L479.088941,162.015451 C479.088941,148.504151 468.105961,137.512884 454.604848,137.512884 L454.604848,133.311867 C470.419532,133.311867 483.28679,146.187392 483.28679,162.015451" id="Fill-25" fill="#ECFAFB"></path>
                    <path d="M474.191834,166.854261 C474.191834,170.722253 477.323655,173.854994 481.18729,173.854994 C485.052365,173.854994 488.184185,170.722253 488.184185,166.854261 C488.184185,162.987711 485.052365,159.854969 481.18729,159.854969 C477.323655,159.854969 474.191834,162.987711 474.191834,166.854261" id="Fill-26" fill="#ECFAFB"></path>
                    <path d="M481.144216,179.222463 C480.370625,179.222463 479.745413,178.595338 479.745413,177.822605 L479.745413,169.541672 C479.745413,168.767497 480.370625,168.140372 481.144216,168.140372 C481.917808,168.140372 482.54446,168.767497 482.54446,169.541672 L482.54446,177.822605 C482.54446,178.595338 481.917808,179.222463 481.144216,179.222463" id="Fill-27" fill="#ECFAFB"></path>
                    <path d="M476.510159,179.222463 C475.736568,179.222463 475.109916,178.595338 475.109916,177.822605 L475.109916,169.541672 C475.109916,168.767497 475.736568,168.140372 476.510159,168.140372 C477.28231,168.140372 477.908962,168.767497 477.908962,169.541672 L477.908962,177.822605 C477.908962,178.595338 477.28231,179.222463 476.510159,179.222463" id="Fill-28" fill="#ECFAFB"></path>
                    <path d="M485.778273,179.222463 C485.006122,179.222463 484.37947,178.595338 484.37947,177.822605 L484.37947,169.541672 C484.37947,168.767497 485.006122,168.140372 485.778273,168.140372 C486.551864,168.140372 487.178517,168.767497 487.178517,169.541672 L487.178517,177.822605 C487.178517,178.595338 486.551864,179.222463 485.778273,179.222463" id="Fill-29" fill="#ECFAFB"></path>
                    <path d="M471.267026,172.342253 C470.908321,172.342253 470.551057,172.205295 470.277347,171.93282 C469.731368,171.384987 469.731368,170.499803 470.277347,169.95197 L476.130423,164.094478 C476.676402,163.548087 477.560918,163.548087 478.108339,164.094478 C478.654318,164.642312 478.654318,165.527495 478.108339,166.075328 L472.256704,171.93282 C471.982994,172.205295 471.624289,172.342253 471.267026,172.342253" id="Fill-30" fill="#ECFAFB"></path>
                    <polygon id="Fill-31" fill="#FFFFFF" points="173.007386 281.733325 177.205235 281.733325 177.205235 242.246075 173.007386 242.246075"></polygon>
                    <path d="M177.205811,281.732892 C177.205811,275.835034 172.430289,271.055909 166.538318,271.055909 C160.644907,271.055909 155.867944,275.835034 155.867944,281.732892 L177.205811,281.732892 Z" id="Fill-32" fill="#FFFFFF"></path>
                    <polygon id="Fill-33" fill="#FFFFFF" points="314.591881 281.733325 318.78973 281.733325 318.78973 242.246075 314.591881 242.246075"></polygon>
                    <path d="M314.591305,281.732892 C314.591305,275.835034 319.366827,271.055909 325.260238,271.055909 C331.152209,271.055909 335.929172,275.835034 335.929172,281.732892 L314.591305,281.732892 Z" id="Fill-34" fill="#FFFFFF"></path>
                    <path d="M198.327735,166.647382 L293.469381,166.647382" id="Stroke-35" stroke="#FFFFFF" stroke-width="2.5" stroke-linecap="round"></path>
                    <path d="M124.803428,290.833413 L29.6617812,290.833413" id="Stroke-36" stroke="#FFFFFF" stroke-width="3" stroke-linecap="round"></path>
                    <path d="M16.1366104,290.833413 L0.160581449,290.833413" id="Stroke-37" stroke="#FFFFFF" stroke-width="3" stroke-linecap="round"></path>
                    <path d="M366.995273,290.836152 L462.136919,290.836152" id="Stroke-38" stroke="#FFFFFF" stroke-width="3" stroke-linecap="round"></path>
                    <path d="M176.109242,318.8375 L241.478427,318.8375" id="Stroke-39" stroke="#FFFFFF" stroke-width="3" stroke-linecap="round"></path>
                    <path d="M475.661946,290.836152 L491.637975,290.836152" id="Stroke-40" stroke="#FFFFFF" stroke-width="3" stroke-linecap="round"></path>
                    <path d="M253.631158,318.8375 L269.607187,318.8375" id="Stroke-41" stroke="#FFFFFF" stroke-width="3" stroke-linecap="round"></path>
                    <path d="M411.041142,318.8375 L345.669075,318.8375" id="Stroke-42" stroke="#FFFFFF" stroke-width="3" stroke-linecap="round"></path>
                    <path d="M112.140588,318.8375 L96.1659994,318.8375" id="Stroke-43" stroke="#FFFFFF" stroke-width="3" stroke-linecap="round"></path>
                </g>
            </g>
        </g>
    </g>
</svg>