<?xml version="1.0" encoding="utf-8"?>
<!-- Generator: Adobe Illustrator 22.1.0, SVG Export Plug-In . SVG Version: 6.00 Build 0)  -->
<svg version="1.1" id="Layer_1" xmlns="http://www.w3.org/2000/svg" xmlns:xlink="http://www.w3.org/1999/xlink" x="0px" y="0px"
	 viewBox="0 0 763.5 459" style="enable-background:new 0 0 763.5 459;" xml:space="preserve">
<style type="text/css">
	.st0{fill-rule:evenodd;clip-rule:evenodd;fill:#3D9F47;}
	.st1{fill-rule:evenodd;clip-rule:evenodd;fill:#70C06B;}
	.st2{fill:#70C06B;}
</style>
<g>
	<g>
		<path class="st0" d="M443,323.1c12-7.1,23.7-14.9,34.7-25.3c9,10.4,20.5,18.7,34,25.3v105.8H443V323.1"/>
		<path class="st0" d="M592.3,31.3c82,0,148.6,66.5,148.6,148.5c0,72.1-51.3,132.1-119.4,145.7c-9.3,1.9-19.3,2.7-29.4,2.7
			c-3,0-5.9-0.1-8.9-0.3v-68.3c0.6,0.1,1.2,0.1,1.8,0.2c10.9,1,21.9,0.1,31.7-3.1c32.6-10.4,56.2-40.9,56.2-76.9
			c0-44.6-36.1-80.7-80.7-80.7c-29,0-54.4,15.3-68.6,38.2c-6.3-24.3-18.1-46.4-34-65C516.4,47,552.6,31.3,592.3,31.3"/>
		<path class="st0" d="M240.9,294.9c-3.5,3-7.3,5.9-11.4,8.5c-13.4,8.7-29,15-45.6,19.2c-19.4,5-39.9,7-60.3,7
			c-13.1,0-26.1-0.8-39-2.3c-11.2-1.4-22.4-3.3-33.2-6c-8.7-2.2-17.6-5-25.4-8.7l-5.1-2.4l22.2-61.1l9.1,4.4
			c5.2,2.5,11.1,4.5,16.8,6.1c7.4,2.2,15.2,3.8,22.9,5.1c8,1.3,22,2.1,30.2,2.1c9.6,0,25.2-1.1,33.9-4.4c6.8-2.6,12.5-6.1,16.5-11
			c3.9-4.8,5.7-10.1,5.7-15.8c-0.1-21.5-26-34.2-45.8-34.2h-57V144H130c32.6-1.2,48.2-21.5,34.2-39.1c-2.9-3.6-7.1-6.1-12.1-7.9
			c-6.7-2.4-20.3-3.1-27.6-3.1c-18.1,0-46.4,5.4-62.4,12.7l-9.1,4.1L32.4,52.3l5-2.4C45.7,46,54.9,43,64,40.5
			c11.4-3.1,23.3-5.4,35.2-7c13.2-1.9,26.7-2.8,40.1-2.8c16.9,0,34.1,1.6,50.1,5.8c13.6,3.6,26.5,8.8,37.3,16.1
			c5.6,3.8,10.5,8,14.7,12.7c-28.7,30.1-46.1,70.8-46.1,115C195.3,224.7,212.6,265.1,240.9,294.9"/>
		<path class="st1" d="M362.4,99.2c44.6,0,80.7,36.1,80.7,80.7c0,44.6-36.1,80.7-80.7,80.7c-44.6,0-80.7-36.1-80.7-80.7
			C281.7,135.3,317.8,99.2,362.4,99.2 M362.4,31.3c76.7,0,139.9,58.2,147.7,132.8c1.4,13.7,0.7,23.4,4.5,37.2
			c3.2,11.6,9,22.2,16.6,31.1c10.2,10.7,19.6,18.1,33.8,23v70.3c-12.8-2.3-25.3-6.4-37-12c-19.5-9.4-36.7-23-50.4-39.6
			c-27.3,33.6-69,55.1-115.7,55.1c-82.3,0-148.9-66.7-148.9-148.9c0-74.8,55.2-136.7,127-147.3C347.3,31.9,354.8,31.3,362.4,31.3"/>
	</g>
	<g>
		<path class="st2" d="M47,388.8l-2.1,7.5H38l9-29.4h8.7l9.1,29.4h-7.2l-2.3-7.5H47z M54.5,383.8l-1.8-6.2c-0.5-1.7-1-3.9-1.5-5.7
			h-0.1c-0.4,1.7-0.9,4-1.4,5.7l-1.7,6.2H54.5z"/>
		<path class="st2" d="M68.4,390.5c1.2,0.7,3.8,1.6,5.7,1.6c2,0,2.8-0.7,2.8-1.8c0-1.1-0.7-1.6-3.1-2.4c-4.4-1.5-6.1-3.9-6.1-6.4
			c0-4,3.4-7,8.7-7c2.5,0,4.7,0.6,6,1.2l-1.2,4.6c-1-0.5-2.8-1.2-4.6-1.2c-1.6,0-2.5,0.7-2.5,1.7c0,1,0.8,1.5,3.4,2.4
			c4.1,1.4,5.8,3.4,5.8,6.6c0,4-3.1,6.9-9.2,6.9c-2.8,0-5.3-0.6-6.9-1.5L68.4,390.5z"/>
		<path class="st2" d="M103.2,388.8l-2.1,7.5h-6.9l9-29.4h8.7l9.1,29.4h-7.2l-2.3-7.5H103.2z M110.7,383.8l-1.8-6.2
			c-0.5-1.7-1-3.9-1.5-5.7h-0.1c-0.4,1.7-0.9,4-1.4,5.7l-1.7,6.2H110.7z"/>
		<path class="st2" d="M144.6,375c-0.1,1.4-0.2,3.1-0.2,6.3v11.9c0,4.1-0.8,7.5-3.2,9.6c-2.4,2-5.5,2.6-8.7,2.6
			c-2.8,0-5.8-0.6-7.7-1.7l1.3-5c1.4,0.8,3.7,1.6,6.2,1.6c3.1,0,5.5-1.7,5.5-5.6v-1.4h-0.1c-1.3,1.8-3.3,2.8-5.8,2.8
			c-5.3,0-9-4.3-9-10.4c0-6.8,4.4-11.2,9.7-11.2c2.9,0,4.8,1.3,5.8,3h0.1l0.2-2.5H144.6z M137.8,383.7c0-0.4,0-0.9-0.1-1.2
			c-0.5-1.7-1.7-2.9-3.6-2.9c-2.4,0-4.4,2.2-4.4,6.1c0,3.2,1.6,5.7,4.4,5.7c1.7,0,3.1-1.1,3.5-2.7c0.2-0.5,0.2-1.2,0.2-1.7V383.7z"
			/>
		<path class="st2" d="M156.6,369.1c0,1.8-1.4,3.3-3.6,3.3c-2.1,0-3.5-1.5-3.4-3.3c0-1.9,1.4-3.4,3.5-3.4S156.5,367.1,156.6,369.1z
			 M149.7,396.3V375h6.6v21.3H149.7z"/>
		<path class="st2" d="M161.7,365.4h6.6v31h-6.6V365.4z"/>
		<path class="st2" d="M178.8,387.8c0.2,2.7,2.9,4.1,6,4.1c2.3,0,4.1-0.3,5.9-0.9l0.9,4.5c-2.2,0.9-4.8,1.3-7.7,1.3
			c-7.2,0-11.4-4.2-11.4-10.9c0-5.4,3.4-11.4,10.8-11.4c6.9,0,9.5,5.4,9.5,10.6c0,1.1-0.1,2.1-0.2,2.6H178.8z M186.6,383.2
			c0-1.6-0.7-4.3-3.8-4.3c-2.8,0-3.9,2.5-4.1,4.3H186.6z"/>
		<path class="st2" d="M212.6,388.8l-2.1,7.5h-6.9l9-29.4h8.7l9.1,29.4h-7.2l-2.3-7.5H212.6z M220,383.8l-1.8-6.2
			c-0.5-1.7-1-3.9-1.5-5.7h-0.1c-0.4,1.7-0.9,4-1.4,5.7l-1.7,6.2H220z"/>
		<path class="st2" d="M234,390.5c1.2,0.7,3.8,1.6,5.7,1.6c2,0,2.8-0.7,2.8-1.8c0-1.1-0.7-1.6-3.1-2.4c-4.4-1.5-6.1-3.9-6.1-6.4
			c0-4,3.4-7,8.7-7c2.5,0,4.7,0.6,6,1.2l-1.2,4.6c-1-0.5-2.8-1.2-4.6-1.2c-1.6,0-2.5,0.7-2.5,1.7c0,1,0.8,1.5,3.4,2.4
			c4.1,1.4,5.8,3.4,5.8,6.6c0,4-3.1,6.9-9.2,6.9c-2.8,0-5.3-0.6-6.9-1.5L234,390.5z"/>
		<path class="st2" d="M262,367.3c2.1-0.3,4.9-0.6,9-0.6c4.1,0,7,0.8,9,2.4c1.9,1.5,3.1,3.9,3.1,6.8c0,2.9-1,5.3-2.7,7
			c-2.3,2.1-5.6,3.1-9.6,3.1c-0.9,0-1.7,0-2.3-0.1v10.5H262V367.3z M268.6,380.7c0.6,0.1,1.3,0.2,2.2,0.2c3.5,0,5.7-1.8,5.7-4.8
			c0-2.7-1.9-4.3-5.2-4.3c-1.4,0-2.3,0.1-2.7,0.3V380.7z"/>
		<path class="st2" d="M307.1,385.4c0,7.8-5.5,11.4-11.3,11.4c-6.2,0-11-4.1-11-11c0-6.9,4.5-11.3,11.4-11.3
			C302.8,374.5,307.1,379,307.1,385.4z M291.7,385.6c0,3.7,1.5,6.4,4.4,6.4c2.6,0,4.2-2.6,4.2-6.4c0-3.2-1.2-6.4-4.2-6.4
			C292.9,379.2,291.7,382.5,291.7,385.6z"/>
		<path class="st2" d="M311.2,390.5c1.2,0.7,3.8,1.6,5.7,1.6c2,0,2.8-0.7,2.8-1.8c0-1.1-0.7-1.6-3.1-2.4c-4.4-1.5-6.1-3.9-6.1-6.4
			c0-4,3.4-7,8.7-7c2.5,0,4.7,0.6,6,1.2l-1.2,4.6c-1-0.5-2.8-1.2-4.6-1.2c-1.6,0-2.5,0.7-2.5,1.7c0,1,0.8,1.5,3.4,2.4
			c4.1,1.4,5.8,3.4,5.8,6.6c0,4-3.1,6.9-9.2,6.9c-2.8,0-5.3-0.6-6.9-1.5L311.2,390.5z"/>
		<path class="st2" d="M330.1,390.5c1.2,0.7,3.8,1.6,5.7,1.6c2,0,2.8-0.7,2.8-1.8c0-1.1-0.7-1.6-3.1-2.4c-4.4-1.5-6.1-3.9-6.1-6.4
			c0-4,3.4-7,8.7-7c2.5,0,4.7,0.6,6,1.2l-1.2,4.6c-1-0.5-2.8-1.2-4.6-1.2c-1.6,0-2.5,0.7-2.5,1.7c0,1,0.8,1.5,3.4,2.4
			c4.1,1.4,5.8,3.4,5.8,6.6c0,4-3.1,6.9-9.2,6.9c-2.8,0-5.3-0.6-6.9-1.5L330.1,390.5z"/>
		<path class="st2" d="M355.9,369.1c0,1.8-1.4,3.3-3.6,3.3c-2.1,0-3.5-1.5-3.4-3.3c0-1.9,1.4-3.4,3.5-3.4
			C354.5,365.7,355.9,367.1,355.9,369.1z M349.1,396.3V375h6.6v21.3H349.1z"/>
		<path class="st2" d="M360.9,396.3c0.1-1.4,0.2-4,0.2-6.4v-24.6h6.6v12.2h0.1c1.3-1.8,3.5-3,6.5-3c5.1,0,8.9,4.2,8.8,10.8
			c0,7.7-4.9,11.5-9.8,11.5c-2.5,0-4.9-0.9-6.4-3.4h-0.1l-0.3,3H360.9z M367.7,387.3c0,0.4,0,0.8,0.1,1.2c0.4,1.8,2,3.1,3.9,3.1
			c2.8,0,4.6-2.2,4.6-6c0-3.3-1.5-5.9-4.6-5.9c-1.8,0-3.4,1.4-3.9,3.3c-0.1,0.4-0.1,0.8-0.1,1.2V387.3z"/>
		<path class="st2" d="M387.1,365.4h6.6v31h-6.6V365.4z"/>
		<path class="st2" d="M404.2,387.8c0.2,2.7,2.9,4.1,6,4.1c2.3,0,4.1-0.3,5.9-0.9l0.9,4.5c-2.2,0.9-4.8,1.3-7.7,1.3
			c-7.2,0-11.4-4.2-11.4-10.9c0-5.4,3.4-11.4,10.8-11.4c6.9,0,9.5,5.4,9.5,10.6c0,1.1-0.1,2.1-0.2,2.6H404.2z M412,383.2
			c0-1.6-0.7-4.3-3.8-4.3c-2.8,0-3.9,2.5-4.1,4.3H412z"/>
	</g>
</g>
</svg>
