<?xml version="1.0" encoding="utf-8"?>
<!-- Generator: Adobe Illustrator 22.1.0, SVG Export Plug-In . SVG Version: 6.00 Build 0)  -->
<svg version="1.1" id="Layer_1" xmlns="http://www.w3.org/2000/svg" xmlns:xlink="http://www.w3.org/1999/xlink" x="0px" y="0px"
	 viewBox="0 0 836.2 566" style="enable-background:new 0 0 836.2 566;" xml:space="preserve">
<style type="text/css">
	.st0{fill:#FFFFFF;}
</style>
<g>
	<polygon class="st0" points="219,566 240,455.3 245.2,566 249,566 244.5,468.3 261.9,566 264.9,566 243.4,445.2 242.5,426.4 
		240.1,439.1 239.3,439.2 239.4,442.5 216,566 	"/>
	<path class="st0" d="M756.3,543.5l-10.9-66.9l-6.2,37L728,453.7l-18.7,103.5l38.3,1.6l-1.7-9h10.3V543.5z M739.4,530.7l3,16.1h-5.7
		L739.4,530.7z M712.9,554.4l15.2-84.2l9.7,52l-4.6,27.6h9.8l1.1,5.9L712.9,554.4z M753.3,546.8h-7.9l-4.6-24.6l4.6-27.2l7.9,48.7
		V546.8z"/>
	<path class="st0" d="M19.6,566L3.3,523.6l113.6-191l64.9-13.3l26.5,13l10.9,36.1L184,387.7c-0.5,0.3-0.8,0.8-0.8,1.3l2,67.6
		l-12.6,21.2l-3.8-22.1l-0.5,0.1l-1.1-10.9l-10.3,59.3l-12.2,20.5l-13.1-73.3L111.6,566h3l16.9-97.5l10.8,60l-18.6,31.2l-0.1,0.2
		l-1.1,4.5l-7.4,1.6h13.6l22.4-5l-0.8-4.4l24.7-1l0,0H186l-12.6-73.4l12.5-21L203.7,566h3l-18.5-108.7l62.3-104.4l78.8,132.8
		l-12.4,18c-0.5,0.7-0.3,1.6,0.4,2.1c0.3,0.2,0.6,0.3,0.8,0.3c0.5,0,0.9-0.2,1.2-0.6l11.6-16.9l20.2,34.1l-25.5,14.5L273.7,566h7.4
		l46.2-26.3l28.2-15.7l-0.3-0.5c0-0.1,0.1-0.2,0.1-0.3c0.1-0.4,0-0.8-0.2-1.1l-21.9-36.8l34.8-50.5c3,2,6.7,3.2,10.6,3.2
		c10.6,0,19.2-8.6,19.2-19.2c0-3.1-0.8-6-2.1-8.6c-2.6-7-9.3-12-17.1-12c-2,0-4,0.3-5.8,1l-34.1-71.6c5.2-3.4,8.7-9.3,8.7-16
		c0-7.5-4.3-14-10.6-17.2l11.2-32.6l105.5-11.5l31.5,98.6l-52.5-7.8l9.8,99.9L415,488.3l-8.3-44.6l-1.4-14l-2,10.5l-0.3,0l0.1,1
		l-19.2,100.7l-14,24.1h3.4l8.8-15.3l-2.9,15.3h3l4.4-23l22.4-38.6L415,566h3.7l-6.5-66.8l1.4-2.4l12.9,69.3h3l-13.6-73.2l27.1-46.7
		l7.4,74.9l13.9,45h3.1l-14.1-45.5l-7.7-78.8l82.3-141.9l129,216.7l4.6,26.9l-4.1,22.6h3l2.6-14.1l2.4,14.1h3l-3.9-22.6l2-10.8
		l10.2,17.1l1.6,16.3h3.1l-1-10l3.6,6l0.7,4h5.5l-3.5-5.9l-12.7-68.6l-1-10.4l-7.8,42.8l-5.5-9.3l-15.3-88.8l42.2-28.9l-43.6-115.5
		l12.3-13.6l151.6,254.7l-7.4,43.5h3l6.7-39.5l22.3,37.5l0.4,2h4.4l-2-3.3l-18.5-93.1l-8.2,48.3L601.3,171.5l-0.4-0.7l-0.5-1.4
		l-0.1,0.3l-0.2-0.3l-72.1,124.3l-111.4-187c5.6-3.4,9.3-9.5,9.3-16.4c0-10.5-8.5-19-18.9-19.2V36.7h26.7v8.8l-0.9,1.1h0.9h38.4h10
		l-9.9-19.1l9.9-19.1h-30.2h-6.6V0.3h-38.9c-0.2-0.2-0.6-0.3-0.9-0.3c-0.8,0-1.5,0.7-1.5,1.5v69.7c-9.3,1.3-16.5,9.3-16.5,19
		c0,6.1,2.8,11.5,7.2,15l-144,241.5L179.5,227c0,0-0.1-0.1-0.1-0.1l-0.8-2.6l-0.5,0.8l-0.4-0.7L0.4,522.7L0,523.3L16.4,566H19.6z
		 M166.4,467.1l1.8,18.2l-7,11.7L166.4,467.1z M125.8,563.7l0.6-2.6l16.7-28l4.6,25.7L125.8,563.7z M149,549l-3.6-19.9l10-16.7
		L149,549z M151.3,553.6l8.4-48.4l8.9-14.9l6,62.4L151.3,553.6z M182.4,552.7h-4.6l-5.4-58.7L182.4,552.7z M388.4,534.1l15.7-82.3
		l4.5,47.5L388.4,534.1z M411.6,494.1l-1.6-16l2.6,14.2L411.6,494.1z M682.2,552.7l-2.6-4.4l-2.1-21.3L682.2,552.7z M672,502.4
		l3.9,39.6l-8.5-14.3L672,502.4z M664.1,528.8l-1.1,6.2l-1.9-11.3L664.1,528.8z M816,486l13.7,69l-19.8-33.2L816,486z M653.3,265.3
		l-11.7,12.9l-33.5-88.8L653.3,265.3z M599.8,176.4l26.7,70.8l12.1,32L580.8,264l-40.2,14.5L599.8,176.4z M537.7,282.7l43.3-15.6
		l58.8,15.4l0.6,1.6l0.2-0.2l42.2,111.8L641,424.4l14.3,83.1L529.7,296.5L537.7,282.7z M440.7,36.7l-4.1,5.1v-5.1H440.7z
		 M436.7,33.8V11.4h5.7v22.3H436.7z M477.2,11.4l-8.3,16.1l8.3,16.1h-6.7l-17-32.2H477.2z M445.3,36.7V11.4h4.8l17,32.2H439l5.5-6.9
		H445.3z M409,3.3h33.4v5.2h0h-8.7v25.3H409V3.3z M378.6,408.6c2.9,0,5.6,1.3,7.5,3.3c0.8,1.4,1.3,3,1.3,4.7c0,4.9-3.9,8.8-8.8,8.8
		c-1.3,0-2.5-0.3-3.6-0.8l5.3-7.7l0.5-0.7l-3.6-7.5C377.8,408.6,378.2,408.6,378.6,408.6z M374.4,409.5l3,6.4l-4.9,7.1
		c-1.7-1.6-2.8-3.9-2.8-6.4c0-1.7,0.5-3.3,1.3-4.7C372.1,410.8,373.2,410,374.4,409.5z M338.5,311.6c0,3.2-1.4,6-3.7,7.9l-3.9-8.1
		l2.9-8.3C336.7,304.8,338.5,308,338.5,311.6z M332.3,321c-1.2,0.5-2.6,0.8-4,0.8c-5.6,0-10.2-4.6-10.2-10.2
		c0-5.6,4.6-10.2,10.2-10.2c1,0,2,0.1,2.9,0.4l-3.2,9.2l-0.2,0.6L332.3,321z M526,296.8L445,436.6l-9-91.9l53.4,8L456.8,251
		l51.3,15.9L526,296.8z M504.7,261.7l-47.6-14.8l-44-138.7c0,0,0,0,0,0L504.7,261.7z M407,79.9c5.5,0.1,10,4.7,10,10.2
		c0,3.7-2,7-5,8.8l-3.9-6.5l-1.1-3.6V79.9z M406.7,109.3c0.7,0,1.4,0,2.1-0.1l43.7,138.3l-103.4,11.2l51.7-150.4
		C402.7,109,404.6,109.3,406.7,109.3z M404.8,96.7l1.2,3.7c-0.8-0.1-1.5-0.2-2.3-0.4L404.8,96.7z M404,80.3v9.1c0,0-0.1,0-0.1,0
		c-0.7,0.3-1,1.1-0.8,1.8l-3.7,6.2c-1.8-1.8-2.9-4.4-2.9-7.2C396.5,85.5,399.7,81.5,404,80.3z M397.9,107.2c0,0,0.1,0,0.1,0.1
		l-52.2,151.9l-41.7,4.5L397.9,107.2z M301.8,266.9l42.9-4.7l-10.7,31.1c-1.8-0.6-3.8-0.9-5.8-0.9c-10.6,0-19.2,8.6-19.2,19.2
		c0,10.6,8.6,19.2,19.2,19.2c2.8,0,5.4-0.6,7.8-1.7l33.9,71.3c-3.9,2.1-7,5.6-8.6,9.8c-1.3,2.6-2.1,5.5-2.1,8.6
		c0,5.6,2.4,10.6,6.2,14.1l-34.1,49.5l-79.1-132.9L301.8,266.9z M248.8,350l-60.7,101.9l-1.8-62l35.5-19.4c0.6-0.3,0.9-1.1,0.7-1.7
		l-10.9-36.1h27L248.8,350z M236.7,329.6h-26.1l-27.1-89.8L236.7,329.6z M177.8,231.6l29.1,96.6l-24.6-12.1L119.9,329L177.8,231.6z"
		/>
	<path class="st0" d="M498.1,566l25.3-146l13.5,116.8l-4.3,24.8l6.9-3l0.8,7.4h3.4l-1-8.7l7.1-3l2.2,11.8h3l-2.5-13l12.1-5.2l0.9,7
		l2.3-8.4l1.1-0.5l-0.3-2.4l2.2-8.1l-13.4-73.8l-3.2-23.3l-1.7,9.8l-0.6,0.1l0.2,1.8l-9.2,52.5L526,413.1l-1.8-15.2l-1.8,10.5
		l-0.3,0l0.1,1.1L495.1,566H498.1z M567.7,535.4l-0.2,0.7l-1-7L567.7,535.4z M536.4,556.7l1.7-9.5l1,8.3L536.4,556.7z M553.4,460
		l10.8,84.7l-12.3,5.3l-7.4-39.2L553.4,460z M543,519.1l6.1,32.1l-6.8,2.9l-2.1-18.5L543,519.1z M541.5,510.8l-2.5,14.4l-8.2-71.1
		L541.5,510.8z"/>
	<path class="st0" d="M616.7,536.8l-20.2-107L596,430l-1.1-11.2l-19.5,118h28.7h2.4H616.7z M578.9,533.9l15.2-92.3l9.2,92.3H578.9z
		 M599.9,464l13.2,69.9h-6.2L599.9,464z"/>
</g>
</svg>
